<svg width="20" height="20" viewBox="0 0 20 20" fill="none" xmlns="http://www.w3.org/2000/svg">
<path d="M13.1041 11.2708L12.1875 10.3541C12.5486 9.36802 12.3611 8.54857 11.625 7.89579C10.8889 7.24302 10.0903 7.07635 9.22915 7.39579L8.31248 6.47913C8.54859 6.32635 8.81248 6.21524 9.10415 6.14579C9.39581 6.07635 9.69442 6.04163 9.99998 6.04163C10.9861 6.04163 11.8229 6.38538 12.5104 7.07288C13.1979 7.76038 13.5416 8.59718 13.5416 9.58329C13.5416 9.88885 13.5035 10.1909 13.4271 10.4895C13.3507 10.7882 13.243 11.0486 13.1041 11.2708ZM15.7916 13.9583L14.9583 13.125C15.6389 12.625 16.2326 12.0659 16.7396 11.4479C17.2465 10.8298 17.618 10.2083 17.8541 9.58329C17.1597 8.04163 16.118 6.82288 14.7291 5.92704C13.3403 5.03121 11.8333 4.58329 10.2083 4.58329C9.62498 4.58329 9.02776 4.63885 8.41665 4.74996C7.80554 4.86107 7.32637 4.99301 6.97915 5.14579L6.02081 4.16663C6.50692 3.9444 7.12845 3.74996 7.8854 3.58329C8.64234 3.41663 9.38192 3.33329 10.1041 3.33329C12.0903 3.33329 13.9062 3.89926 15.5521 5.03121C17.1979 6.16315 18.4028 7.68051 19.1666 9.58329C18.8055 10.4722 18.3403 11.2847 17.7708 12.0208C17.2014 12.7569 16.5416 13.4027 15.7916 13.9583ZM17 18.6666L13.5 15.2291C13.0139 15.4236 12.4653 15.5729 11.8541 15.677C11.243 15.7812 10.625 15.8333 9.99998 15.8333C7.9722 15.8333 6.13192 15.2673 4.47915 14.1354C2.82637 13.0034 1.61109 11.4861 0.833313 9.58329C1.11109 8.86107 1.49651 8.15621 1.98956 7.46871C2.48262 6.78121 3.08331 6.12496 3.79165 5.49996L1.16665 2.87496L2.04165 1.97913L17.8125 17.75L17 18.6666ZM4.64581 6.37496C4.13192 6.74996 3.6354 7.24302 3.15623 7.85413C2.67706 8.46524 2.33331 9.04163 2.12498 9.58329C2.83331 11.125 3.89929 12.3437 5.3229 13.2395C6.74651 14.1354 8.36109 14.5833 10.1666 14.5833C10.625 14.5833 11.0764 14.5555 11.5208 14.5C11.9653 14.4444 12.2986 14.3611 12.5208 14.25L11.1875 12.9166C11.0347 12.9861 10.8472 13.0382 10.625 13.0729C10.4028 13.1076 10.1944 13.125 9.99998 13.125C9.02776 13.125 8.19442 12.7847 7.49998 12.1041C6.80554 11.4236 6.45831 10.5833 6.45831 9.58329C6.45831 9.37496 6.47567 9.16663 6.5104 8.95829C6.54512 8.74996 6.5972 8.56246 6.66665 8.39579L4.64581 6.37496Z" fill="#64748B"/>
</svg>
