<svg width="40" height="40" viewBox="0 0 40 40" fill="none" xmlns="http://www.w3.org/2000/svg">
<path d="M20.0049 26.25C21.9738 26.25 23.6458 25.5608 25.0208 24.1825C26.3958 22.8043 27.0833 21.1307 27.0833 19.1617C27.0833 17.1928 26.3942 15.5208 25.0159 14.1458C23.6376 12.7708 21.964 12.0833 19.995 12.0833C18.0261 12.0833 16.3541 12.7724 14.9791 14.1507C13.6041 15.529 12.9166 17.2026 12.9166 19.1715C12.9166 21.1405 13.6058 22.8125 14.984 24.1875C16.3623 25.5625 18.0359 26.25 20.0049 26.25ZM19.9902 23.8333C18.6911 23.8333 17.5902 23.3786 16.6875 22.4693C15.7847 21.56 15.3333 20.4558 15.3333 19.1568C15.3333 17.8578 15.7879 16.7569 16.6973 15.8541C17.6066 14.9513 18.7108 14.5 20.0098 14.5C21.3088 14.5 22.4097 14.9546 23.3125 15.8639C24.2152 16.7733 24.6666 17.8774 24.6666 19.1764C24.6666 20.4754 24.212 21.5763 23.3027 22.4791C22.3933 23.3819 21.2892 23.8333 19.9902 23.8333ZM20 31.6666C15.9444 31.6666 12.2777 30.5138 8.99996 28.2083C5.72218 25.9027 3.27774 22.8888 1.66663 19.1666C3.27774 15.4444 5.72218 12.4305 8.99996 10.125C12.2777 7.8194 15.9444 6.66663 20 6.66663C24.0555 6.66663 27.7222 7.8194 31 10.125C34.2777 12.4305 36.7222 15.4444 38.3333 19.1666C36.7222 22.8888 34.2777 25.9027 31 28.2083C27.7222 30.5138 24.0555 31.6666 20 31.6666ZM19.9929 29.1666C23.3587 29.1666 26.4513 28.2569 29.2708 26.4375C32.0902 24.618 34.2361 22.1944 35.7083 19.1666C34.2361 16.1388 32.0926 13.7152 29.2778 11.8958C26.4631 10.0763 23.3728 9.16663 20.007 9.16663C16.6412 9.16663 13.5486 10.0763 10.7291 11.8958C7.90968 13.7152 5.74996 16.1388 4.24996 19.1666C5.74996 22.1944 7.90733 24.618 10.7221 26.4375C13.5369 28.2569 16.6271 29.1666 19.9929 29.1666Z" fill="#64748B"/>
</svg>
