<svg width="40" height="40" viewBox="0 0 40 40" fill="none" xmlns="http://www.w3.org/2000/svg">
<path d="M26.2084 22.5417L24.375 20.7083C25.0972 18.7361 24.7222 17.0972 23.25 15.7917C21.7778 14.4861 20.1806 14.1528 18.4584 14.7917L16.625 12.9583C17.0972 12.6528 17.625 12.4306 18.2084 12.2917C18.7917 12.1528 19.3889 12.0833 20 12.0833C21.9722 12.0833 23.6459 12.7708 25.0209 14.1458C26.3959 15.5208 27.0834 17.1945 27.0834 19.1667C27.0834 19.7778 27.007 20.382 26.8542 20.9792C26.7014 21.5764 26.4861 22.0972 26.2084 22.5417ZM31.5834 27.9167L29.9167 26.25C31.2778 25.25 32.4653 24.132 33.4792 22.8958C34.4931 21.6597 35.2361 20.4167 35.7084 19.1667C34.3195 16.0833 32.2361 13.6458 29.4584 11.8542C26.6806 10.0625 23.6667 9.16668 20.4167 9.16668C19.25 9.16668 18.0556 9.27779 16.8334 9.50001C15.6111 9.72223 14.6528 9.98612 13.9584 10.2917L12.0417 8.33334C13.0139 7.8889 14.257 7.50001 15.7709 7.16668C17.2847 6.83334 18.7639 6.66668 20.2084 6.66668C24.1806 6.66668 27.8125 7.79862 31.1042 10.0625C34.3959 12.3264 36.8056 15.3611 38.3334 19.1667C37.6111 20.9445 36.6806 22.5695 35.5417 24.0417C34.4028 25.5139 33.0834 26.8056 31.5834 27.9167ZM34 37.3333L27 30.4583C26.0278 30.8472 24.9306 31.1458 23.7084 31.3542C22.4861 31.5625 21.25 31.6667 20 31.6667C15.9445 31.6667 12.2639 30.5347 8.95835 28.2708C5.6528 26.007 3.22224 22.9722 1.66669 19.1667C2.22224 17.7222 2.99308 16.3125 3.97919 14.9375C4.9653 13.5625 6.16669 12.25 7.58335 11L2.33335 5.75001L4.08335 3.95834L35.625 35.5L34 37.3333ZM9.29169 12.75C8.26391 13.5 7.27085 14.4861 6.31252 15.7083C5.35419 16.9306 4.66669 18.0833 4.25002 19.1667C5.66669 22.25 7.79863 24.6875 10.6459 26.4792C13.4931 28.2708 16.7222 29.1667 20.3334 29.1667C21.25 29.1667 22.1528 29.1111 23.0417 29C23.9306 28.8889 24.5972 28.7222 25.0417 28.5L22.375 25.8333C22.0695 25.9722 21.6945 26.0764 21.25 26.1458C20.8056 26.2153 20.3889 26.25 20 26.25C18.0556 26.25 16.3889 25.5695 15 24.2083C13.6111 22.8472 12.9167 21.1667 12.9167 19.1667C12.9167 18.75 12.9514 18.3333 13.0209 17.9167C13.0903 17.5 13.1945 17.125 13.3334 16.7917L9.29169 12.75Z" fill="#64748B"/>
</svg>
